<?xml version="1.0" standalone="no"?>
<!DOCTYPE svg PUBLIC "-//W3C//DTD SVG 20010904//EN"
 "http://www.w3.org/TR/2001/REC-SVG-20010904/DTD/svg10.dtd">
<svg version="1.0" xmlns="http://www.w3.org/2000/svg"
 width="400.000000pt" height="400.000000pt" viewBox="0 0 400.000000 400.000000"
 preserveAspectRatio="xMidYMid meet">
<metadata>
Created by potrace 1.11, written by Peter Selinger 2001-2013
</metadata>
<g transform="translate(0.000000,400.000000) scale(0.100000,-0.100000)"
fill="#000000" stroke="none">
<path d="M0 3370 c0 -346 2 -630 5 -630 6 0 26 38 30 59 5 26 47 114 62 129 7
7 13 18 13 24 0 15 32 81 47 96 7 7 13 20 13 28 0 8 4 14 9 14 5 0 16 15 26
33 33 63 43 79 76 115 18 20 32 40 32 43 -1 4 9 17 22 29 14 13 25 28 25 34 0
25 322 338 350 341 8 1 33 18 55 38 22 20 46 37 53 37 6 0 12 4 12 8 0 5 18
17 40 27 22 10 40 22 40 27 0 4 6 8 14 8 8 0 21 6 28 13 23 21 75 47 95 47 11
0 30 11 43 25 13 14 30 25 37 25 7 0 21 4 31 9 32 18 61 27 90 30 6 0 12 6 12
11 0 7 -217 10 -630 10 l-630 0 0 -630z"/>
<path d="M2735 3990 c3 -5 25 -14 48 -20 60 -16 97 -31 97 -41 0 -5 12 -9 26
-9 15 0 34 -8 43 -18 9 -11 28 -22 43 -25 15 -4 33 -14 42 -22 8 -8 19 -15 23
-15 5 0 18 -8 29 -18 10 -10 34 -24 52 -31 17 -7 32 -17 32 -22 0 -5 6 -9 13
-9 8 0 22 -9 32 -20 10 -11 24 -20 30 -20 7 0 15 -9 18 -20 3 -11 14 -20 24
-20 19 0 133 -97 223 -190 86 -88 170 -182 170 -189 0 -4 8 -16 18 -27 10 -10
24 -33 31 -51 7 -17 23 -41 37 -54 13 -12 24 -27 24 -31 0 -5 6 -16 13 -23 31
-35 37 -45 37 -60 0 -8 3 -15 8 -15 7 0 24 -33 43 -87 6 -18 15 -33 20 -33 5
0 9 -7 9 -15 0 -7 6 -18 13 -22 7 -4 18 -29 25 -55 6 -27 18 -63 26 -80 13
-29 14 45 15 610 l1 642 -636 0 c-409 0 -633 -3 -629 -10z"/>
<path d="M1 643 l-1 -643 636 0 c409 0 633 3 629 10 -3 5 -25 14 -48 20 -60
16 -97 31 -97 41 0 5 -6 9 -14 9 -15 0 -104 46 -126 65 -8 7 -27 17 -42 20
-16 4 -28 11 -28 15 0 4 -16 15 -35 24 -19 9 -35 21 -35 26 0 6 -9 10 -20 10
-11 0 -20 3 -20 8 0 4 -18 18 -40 32 -22 14 -40 28 -40 32 0 5 -6 8 -13 8 -29
0 -387 351 -387 379 0 4 -13 25 -30 47 -16 21 -30 44 -30 50 0 6 -9 19 -20 29
-12 11 -28 34 -37 52 -8 18 -19 33 -24 33 -5 0 -9 6 -9 14 0 8 -6 21 -13 28
-14 14 -40 69 -52 106 -3 12 -11 22 -16 22 -5 0 -9 7 -9 15 0 7 -6 18 -13 22
-7 4 -18 29 -25 55 -6 27 -18 63 -26 80 -13 29 -14 -45 -15 -609z"/>
<path d="M3971 1218 c-12 -34 -21 -70 -21 -79 0 -9 -7 -19 -15 -23 -8 -3 -15
-17 -15 -31 0 -14 -4 -25 -8 -25 -5 0 -20 -21 -33 -47 -13 -27 -27 -49 -31
-51 -5 -2 -8 -10 -8 -19 0 -8 -6 -21 -12 -28 -29 -32 -57 -74 -64 -97 -4 -10
-10 -18 -14 -18 -4 0 -15 -18 -25 -39 -10 -22 -24 -42 -31 -45 -8 -3 -14 -10
-14 -15 0 -29 -357 -381 -386 -381 -8 0 -14 -6 -14 -12 -1 -15 -81 -68 -103
-68 -8 0 -17 -7 -21 -15 -3 -8 -12 -15 -21 -15 -8 0 -15 -4 -15 -8 0 -5 -18
-17 -40 -28 -22 -10 -40 -21 -40 -24 0 -3 -24 -17 -54 -30 -31 -13 -52 -28
-49 -34 3 -6 3 -8 -1 -4 -4 3 -29 -4 -54 -17 -26 -13 -64 -26 -84 -30 -20 -4
-45 -13 -55 -21 -15 -11 78 -13 620 -14 l637 0 0 640 c0 352 -2 640 -4 640 -2
0 -14 -28 -25 -62z"/>
</g>
</svg>
